<svg width="357" height="94" viewBox="0 0 357 94" fill="none" xmlns="http://www.w3.org/2000/svg">
<path fill-rule="evenodd" clip-rule="evenodd" d="M95.3723 91.2555C94.6141 91.2555 94 90.6414 94 89.8832V36.365C94 35.6071 94.6141 34.9927 95.3723 34.9927H96.7445C97.5027 34.9927 98.1168 35.6071 98.1168 36.365V89.8832C98.1168 90.6414 97.5027 91.2555 96.7445 91.2555H95.3723Z" fill="#1451B5"/>
<path fill-rule="evenodd" clip-rule="evenodd" d="M87.1388 77.5328C86.3806 77.5328 85.7665 76.9188 85.7665 76.1606V36.365C85.7665 35.6071 86.3806 34.9927 87.1388 34.9927H88.511C89.2692 34.9927 89.8833 35.6071 89.8833 36.365V76.1606C89.8833 76.9188 89.2692 77.5328 88.511 77.5328H87.1388Z" fill="#1451B5"/>
<path d="M83.708 9.56845C84.0511 9.56845 85.0803 9.56845 85.3808 9.56845C85.3808 13.046 85.3808 17.3812 85.3808 17.8273C85.3808 18.5478 85.5585 22.0172 85.5585 22.0172C85.5585 22.0172 85.8254 23.9387 85.9434 24.8461C86.0621 25.7535 86.2398 26.7676 87.2773 27.2746C89.6135 28.417 94.9558 28.417 97.292 27.2746C98.3295 26.7676 98.5072 25.7535 98.6259 24.8461C98.7446 23.9387 99.0108 22.0172 99.0108 22.0172C99.0108 22.0172 99.1885 18.5478 99.1885 17.8273C99.1885 17.3812 99.146 13.046 99.146 9.56845C99.489 9.56845 100.518 9.56845 100.861 9.56845C100.861 8.54323 99.3772 7.87892 99.146 7.85977C99.146 6.16054 99.146 5.46769 99.146 5.46769C99.146 5.46769 99.382 2.56621 97.6975 1.42333C96.0975 0.338044 95.4848 0.0889563 94.3588 0H90.2105C89.0845 0.0889563 88.4725 0.338044 86.8724 1.42333C85.1873 2.56621 85.3808 5.41756 85.3808 5.41756C85.3808 5.41756 85.3808 6.16054 85.3808 7.85977C84.7372 7.85977 83.708 8.88499 83.708 9.56845ZM92.522 25.7268H92.0479C92.0479 25.7268 88.7284 25.7301 87.2773 24.8461L87.4845 21.0297C87.4845 21.0297 89.114 21.6969 92.0479 21.6168H92.522C95.4553 21.6969 97.0848 21.0297 97.0848 21.0297L97.292 24.8461C95.8409 25.7301 92.522 25.7268 92.522 25.7268ZM91.7515 5.36419H92.8178C92.8178 5.36419 94.1221 5.28412 96.2258 5.87125C98.3295 6.45838 98.0921 7.68598 98.0921 7.68598L97.4107 10.6483C95.8704 10.1412 92.522 10.1412 92.522 10.1412H92.0479C92.0479 10.1412 88.6996 10.1412 87.1586 10.6483L86.4772 7.68598C86.4772 7.68598 86.2398 6.45838 88.3435 5.87125C90.4479 5.28412 91.7515 5.36419 91.7515 5.36419Z" fill="#1451B5"/>
<path d="M44.6671 17.8394C44.6671 16.7025 43.7456 15.781 42.6088 15.781H33.9635C32.8266 15.781 31.9051 16.7025 31.9051 17.8394V38.4124C30.8841 36.7958 27.7362 34.0733 20.5043 34.0733C8.50803 34.0733 0 43.5172 0 56.1091C0 69.1264 9.01851 78.315 20.9297 78.315C26.0346 78.315 30.2886 76.188 32.2454 73.2953C32.2454 74.0953 32.3018 74.9331 32.3705 75.6494C32.4665 76.6505 33.3233 77.3791 34.3295 77.3791H42.7535C43.9639 77.3791 44.909 76.3403 44.8328 75.1321C44.7473 73.7776 44.6671 71.9525 44.6671 69.807V17.8394ZM13.0173 56.1941C13.0173 49.1325 17.5265 45.7293 22.5463 45.7293C27.566 45.7293 32.0753 49.1325 32.0753 56.1941C32.0753 63.1707 27.566 66.7441 22.5463 66.7441C17.5265 66.7441 13.0173 63.1707 13.0173 56.1941Z" fill="#353535"/>
<path d="M80.6532 36.6255C80.6532 35.7165 80.0549 34.9087 79.154 34.7911C78.557 34.7132 77.9038 34.6686 77.25 34.6686C73.8467 34.6686 68.4868 36.0299 66.2747 40.7944V37.1524C66.2747 36.0155 65.3531 35.094 64.2163 35.094H55.8263C54.6894 35.094 53.7679 36.0155 53.7679 37.1524V75.3205C53.7679 76.4574 54.6894 77.3789 55.8263 77.3789H64.6417C65.7785 77.3789 66.7001 76.4574 66.7001 75.3205V58.9165C66.7001 50.4935 71.3794 47.4306 76.5693 47.4306C77.062 47.4306 77.567 47.4433 78.085 47.4784C79.4092 47.5682 80.6532 46.5844 80.6532 45.2571V36.6255Z" fill="#353535"/>
<path d="M148.198 37.8844C148.71 36.5374 147.716 35.0944 146.274 35.0944H137.116C136.237 35.0944 135.454 35.6531 135.169 36.4849L126.628 61.3842L117.343 36.4349C117.043 35.629 116.273 35.0944 115.413 35.0944H105.875C104.411 35.0944 103.415 36.58 103.971 37.9345L119.638 76.1024C119.955 76.875 120.707 77.3793 121.542 77.3793H131.76C132.614 77.3793 133.38 76.851 133.684 76.0524L148.198 37.8844Z" fill="#353535"/>
<path d="M161.831 51.1748C162.086 48.0269 164.809 44.0281 170.254 44.0281C176.38 44.0281 178.592 47.9418 178.762 51.1748H161.831ZM179.878 63.6569C178.992 63.6569 178.242 64.2503 177.762 64.9953C176.456 67.0236 174.064 67.6804 171.19 67.6804C166.17 67.6804 161.831 64.2772 161.576 59.5127H189.53C190.416 59.5127 191.115 58.9237 191.176 58.0399C191.228 57.3034 191.269 56.3883 191.269 55.5139C191.269 41.9011 183.186 33.8185 170.084 33.8185C159.109 33.8185 148.984 42.4967 148.984 56.1095C148.984 70.3179 159.364 78.6558 171.02 78.6558C180.679 78.6558 188.556 71.8795 190.365 65.7861C190.7 64.6555 189.755 63.6569 188.575 63.6569H179.878Z" fill="#353535"/>
<path d="M221.75 35.0944C220.864 35.0944 220.077 35.6614 219.797 36.5019L211.928 60.108L205.29 36.5936C205.039 35.7068 204.231 35.0944 203.309 35.0944H194.227C192.838 35.0944 191.847 36.4433 192.264 37.7692L204.244 75.9371C204.513 76.7954 205.308 77.3793 206.208 77.3793H216.311C217.199 77.3793 217.987 76.8098 218.265 75.9666L226.817 50.0686L235.535 75.9776C235.817 76.8153 236.601 77.3793 237.485 77.3793H247.336C248.238 77.3793 249.036 76.792 249.302 75.9302L261.129 37.762C261.54 36.4376 260.55 35.0944 259.163 35.0944H250.838C249.916 35.0944 249.106 35.7077 248.856 36.5953L242.217 60.1931L234.43 36.5098C234.152 35.6653 233.364 35.0944 232.474 35.0944H221.75Z" fill="#353535"/>
<path d="M306.083 37.2844C306.083 36.1475 305.162 35.226 304.025 35.226H295.379C294.243 35.226 293.321 36.1475 293.321 37.2844V38.6457C292.3 37.0291 289.152 34.3066 281.92 34.3066C269.924 34.3066 261.416 43.7505 261.416 56.3424C261.416 69.3596 270.434 78.5483 282.346 78.5483C287.451 78.5483 291.705 76.4213 293.661 73.5286C293.661 74.3286 293.718 75.1664 293.786 75.8827C293.882 76.8838 294.739 77.6124 295.745 77.6124H304.169C305.38 77.6124 306.325 76.5736 306.248 75.3654C306.163 74.0109 306.083 72.1858 306.083 70.0403V37.2844ZM274.433 56.4274C274.433 49.3658 278.942 45.9626 283.962 45.9626C288.982 45.9626 293.491 49.3658 293.491 56.4274C293.491 63.404 288.982 66.9774 283.962 66.9774C278.942 66.9774 274.433 63.404 274.433 56.4274Z" fill="#353535"/>
<path d="M329.309 93.6297C330.122 93.6297 330.859 93.1507 331.19 92.4077L355.393 37.9894C355.999 36.6281 355.003 35.0944 353.513 35.0944H344.36C343.527 35.0944 342.775 35.5965 342.457 36.3662L333.624 57.7258L323.878 36.3005C323.544 35.566 322.812 35.0944 322.005 35.0944H312.155C310.635 35.0944 309.639 36.6855 310.303 38.0526L326.648 71.6789L318.297 90.7452C317.701 92.1058 318.698 93.6297 320.182 93.6297H329.309Z" fill="#353535"/>
</svg>
